<?xml version="1.0" encoding="UTF-8"?>
<!DOCTYPE svg PUBLIC "-//W3C//DTD SVG 1.1//EN" "http://www.w3.org/Graphics/SVG/1.1/DTD/svg11.dtd">
<!-- Creator: CorelDRAW 2021.5 -->
<svg xmlns="http://www.w3.org/2000/svg" xml:space="preserve" width="211.667mm" height="211.667mm" version="1.1" style="shape-rendering:geometricPrecision; text-rendering:geometricPrecision; image-rendering:optimizeQuality; fill-rule:evenodd; clip-rule:evenodd"
viewBox="0 0 2908.43 2908.43"
 xmlns:xlink="http://www.w3.org/1999/xlink"
 xmlns:xodm="http://www.corel.com/coreldraw/odm/2003">
 <defs>
  <style type="text/css">
   <![CDATA[
    .fil0 {fill:black;fill-rule:nonzero}
   ]]>
  </style>
 </defs>
 <g id="Layer_x0020_1">
  <metadata id="CorelCorpID_0Corel-Layer"/>
  <path class="fil0" d="M2681.2 0l-2453.98 0c-125.54,0 -227.22,101.68 -227.22,227.22l0 2453.98c0,125.54 101.68,227.22 227.22,227.22l2453.98 -0c125.54,0 227.22,-101.68 227.22,-227.22l-0 -2453.98c0,-125.54 -101.68,-227.22 -227.22,-227.22zm-1226.99 733.22c398.19,0 720.99,322.8 720.99,720.99 0,398.19 -322.8,720.99 -720.99,720.99 -118.63,0 -230.57,-28.65 -329.27,-79.41 -70.38,-36.19 -300.65,106.84 -352.84,38.42 -59.15,-77.55 73.27,-287.1 40.62,-350.55 -50.81,-98.75 -79.5,-210.75 -79.5,-329.45 0,-398.19 322.8,-720.99 720.99,-720.99z"/>
 </g>
</svg>
